<svg width="22" height="22" viewBox="0 0 22 22" fill="none" xmlns="http://www.w3.org/2000/svg">
<path opacity="0.4" d="M16 12.4V15.4C16 19.4 14.4 21 10.4 21H6.6C2.6 21 1 19.4 1 15.4V11.6C1 7.6 2.6 6 6.6 6H9.6" stroke="#292D32" stroke-width="1.5" stroke-linecap="round" stroke-linejoin="round"/>
<path d="M16.0016 12.4H12.8016C10.4016 12.4 9.60156 11.6 9.60156 9.2V6L16.0016 12.4Z" stroke="#292D32" stroke-width="1.5" stroke-linecap="round" stroke-linejoin="round"/>
<path opacity="0.4" d="M6 4C6 2.34 7.34 1 9 1H15" stroke="#292D32" stroke-width="1.5" stroke-linecap="round" stroke-linejoin="round"/>
<path opacity="0.4" d="M21.0014 7V13.19C21.0014 14.74 19.7414 16 18.1914 16" stroke="#292D32" stroke-width="1.5" stroke-linecap="round" stroke-linejoin="round"/>
<path d="M21 7H18C15.75 7 15 6.25 15 4V1L21 7Z" stroke="#292D32" stroke-width="1.5" stroke-linecap="round" stroke-linejoin="round"/>
</svg>
